<?xml version="1.0" standalone="no"?>
<!DOCTYPE svg PUBLIC "-//W3C//DTD SVG 20010904//EN"
 "http://www.w3.org/TR/2001/REC-SVG-20010904/DTD/svg10.dtd">
<svg version="1.0" xmlns="http://www.w3.org/2000/svg"
 width="1448.000000pt" height="1448.000000pt" viewBox="0 0 1448.000000 1448.000000"
 preserveAspectRatio="xMidYMid meet">
<metadata>
Created by potrace 1.14, written by Peter Selinger 2001-2017
</metadata>
<g transform="translate(0.000000,1448.000000) scale(0.100000,-0.100000)"
fill="#000000" stroke="none">
<path d="M7953 10963 c0 -7 5 -13 10 -13 5 0 7 -9 4 -21 -5 -17 -3 -18 11 -7
9 7 14 8 10 4 -4 -5 -4 -14 1 -20 7 -8 0 -12 -20 -12 -16 -1 -29 1 -29 5 0 3
-17 7 -37 9 -20 1 -41 8 -45 15 -6 9 -8 8 -8 -3 0 -12 -2 -12 -9 -2 -4 8 -11
13 -15 12 -4 -1 -17 1 -29 5 -12 4 -34 8 -49 9 -15 1 -35 9 -44 17 -15 12 -16
12 -9 0 6 -11 5 -12 -6 -5 -20 12 -40 14 -33 3 3 -5 -2 -9 -10 -9 -9 0 -25 -9
-35 -19 -19 -19 -19 -19 9 -31 16 -7 31 -18 34 -26 3 -7 12 -11 20 -8 8 3 17
0 21 -5 3 -6 11 -9 16 -6 5 4 9 1 9 -5 0 -6 5 -8 10 -5 6 3 10 1 10 -5 0 -7 6
-10 14 -7 9 4 13 0 12 -11 -2 -12 -11 -16 -27 -14 -13 1 -30 2 -36 2 -27 0
-40 0 -93 4 -30 2 -55 5 -55 6 0 2 -41 7 -97 13 -21 2 -41 6 -44 10 -4 4 -12
7 -18 7 -6 0 -4 -5 4 -10 12 -8 10 -10 -9 -10 -17 0 -22 -4 -17 -16 3 -9 6
-18 6 -20 0 -2 7 -4 16 -4 8 0 12 -4 9 -10 -3 -5 1 -10 9 -10 9 0 16 -7 16
-17 0 -9 3 -14 6 -10 4 3 13 -1 22 -9 12 -12 12 -18 2 -27 -10 -9 -11 -9 -5 2
6 10 4 12 -6 5 -22 -13 -53 -11 -67 6 -12 13 -13 13 -9 -1 4 -13 1 -15 -14
-12 -11 3 -16 10 -12 17 5 8 3 8 -8 0 -19 -15 -99 -15 -99 0 0 6 -5 4 -10 -4
-9 -13 -11 -13 -20 0 -9 13 -11 13 -20 0 -7 -11 -10 -12 -10 -2 0 8 -6 12 -12
9 -7 -2 -23 0 -36 4 -16 6 -21 6 -16 -2 3 -6 -8 -3 -26 6 -18 9 -29 12 -25 5
5 -9 2 -9 -11 -2 -11 5 -29 8 -41 7 -13 -1 -23 2 -23 6 0 5 -7 5 -17 2 -12 -5
-14 -3 -9 8 4 8 0 5 -8 -5 -12 -15 -16 -16 -16 -5 -1 10 -3 9 -11 -4 -6 -9
-14 -15 -20 -12 -5 4 -9 3 -10 -2 0 -4 -2 -15 -4 -24 -1 -8 6 -21 17 -28 16
-10 19 -10 13 1 -6 10 -5 11 6 1 7 -7 24 -13 37 -13 13 0 21 -4 18 -8 -6 -11
25 -9 43 3 10 5 12 4 7 -3 -4 -7 -1 -12 7 -12 8 0 19 -6 25 -12 8 -10 0 -13
-38 -12 -26 1 -54 5 -61 10 -11 6 -11 4 0 -9 13 -16 12 -17 -10 -9 -30 11 -79
9 -98 -2 -11 -7 -12 -6 -6 5 7 11 6 12 -6 3 -8 -6 -52 -10 -106 -9 -53 0 -89
-3 -86 -8 3 -5 -4 -4 -15 2 -25 13 -35 14 -28 2 4 -5 -4 -7 -16 -4 -13 3 -20
2 -16 -2 4 -5 3 -14 -3 -22 -9 -10 -8 -13 2 -13 11 0 11 -2 -1 -10 -10 -6 -11
-10 -2 -10 6 0 12 -9 12 -20 0 -17 -20 -27 -33 -17 -2 1 -11 -4 -20 -12 -14
-11 -17 -11 -17 -1 0 8 -3 10 -7 7 -3 -4 -13 -1 -21 6 -10 8 -13 8 -9 1 4 -7
0 -15 -9 -18 -11 -4 -15 -2 -11 8 5 11 0 13 -22 6 -15 -4 -35 -3 -44 2 -12 6
-17 5 -17 -4 0 -9 -3 -9 -10 2 -6 9 -10 10 -10 3 0 -6 -9 -10 -20 -8 -11 2
-20 -1 -20 -7 0 -5 -7 -8 -15 -4 -8 3 -15 0 -15 -6 0 -6 -3 -9 -6 -6 -9 10
-58 -20 -60 -37 -1 -8 2 -13 7 -9 5 3 6 10 3 16 -4 7 -2 8 5 4 6 -4 9 -11 6
-16 -3 -5 2 -16 12 -25 16 -16 16 -18 0 -30 -10 -7 -33 -11 -53 -9 -22 2 -32
-1 -28 -7 4 -7 -1 -7 -15 0 -16 9 -21 9 -21 -1 0 -8 -3 -9 -8 -3 -11 15 -32
17 -32 3 0 -9 -4 -8 -10 2 -8 12 -10 12 -10 1 0 -11 -3 -11 -15 -1 -12 10 -15
10 -15 -1 0 -9 -3 -10 -11 -2 -14 14 -86 -4 -94 -24 -4 -13 -3 -14 10 -3 12
10 15 10 15 0 0 -7 8 -10 20 -7 11 3 20 1 20 -3 0 -4 9 -6 20 -3 12 3 20 0 20
-6 0 -7 5 -9 12 -5 8 5 9 0 5 -15 -4 -16 -2 -21 7 -18 7 3 13 -1 13 -9 0 -7
-4 -11 -9 -8 -4 3 -8 0 -8 -5 0 -6 6 -11 13 -11 8 0 7 -3 -3 -10 -9 -5 -19 -5
-27 2 -10 8 -13 7 -13 -3 0 -11 -2 -11 -10 1 -8 12 -10 12 -10 1 0 -11 -3 -11
-15 -1 -12 10 -15 10 -15 0 0 -10 -3 -10 -14 -1 -11 9 -15 9 -19 -1 -4 -11 -6
-11 -6 0 -1 10 -6 10 -21 2 -15 -8 -20 -8 -20 1 0 9 -3 9 -14 0 -11 -9 -16 -9
-21 0 -6 8 -10 7 -16 -2 -7 -11 -9 -11 -9 1 0 13 -1 13 -10 0 -8 -12 -10 -12
-10 -1 0 11 -3 11 -15 1 -9 -7 -15 -8 -15 -2 0 5 -8 8 -18 5 -21 -5 -23 -36
-4 -55 7 -7 12 -20 12 -31 0 -11 4 -15 12 -11 6 4 8 3 5 -3 -4 -6 -20 -10 -36
-9 -17 1 -28 -2 -25 -6 3 -4 0 -9 -5 -9 -6 -1 -17 -2 -23 -3 -7 -1 -21 1 -30
6 -10 5 -18 3 -21 -5 -4 -9 -6 -9 -6 1 -1 8 -6 10 -13 5 -21 -12 -38 -12 -38
0 0 8 -4 7 -9 -2 -5 -8 -19 -12 -35 -9 -14 3 -23 2 -21 -2 7 -12 -20 -19 -35
-10 -8 5 -22 4 -33 -2 -12 -6 -17 -6 -13 0 3 5 -13 10 -39 10 -24 1 -47 -3
-50 -9 -4 -5 -10 -7 -15 -4 -4 3 -6 -4 -3 -15 3 -11 10 -23 15 -26 5 -3 1 -12
-9 -19 -14 -10 -21 -11 -32 -2 -12 9 -13 9 -7 -1 6 -9 -1 -11 -28 -8 -19 2
-41 8 -47 12 -8 5 -9 3 -4 -6 5 -8 3 -11 -6 -8 -8 3 -13 12 -11 19 1 8 -4 7
-12 -5 -9 -11 -20 -15 -28 -10 -20 13 -90 7 -99 -8 -5 -7 -9 -8 -9 -3 0 6 -4
3 -9 -5 -12 -18 -3 -33 15 -26 8 3 14 1 14 -5 0 -6 7 -9 15 -5 8 3 19 -2 24
-12 6 -9 11 -12 11 -5 0 16 50 -8 50 -25 0 -7 -5 -10 -11 -7 -6 4 -9 0 -7 -11
3 -18 -1 -20 -43 -23 -13 -1 -18 -6 -14 -13 4 -7 0 -5 -8 5 -16 19 -32 24 -21
6 5 -8 1 -8 -13 0 -11 6 -23 7 -27 4 -3 -3 -6 -1 -6 7 0 10 -3 10 -15 0 -13
-11 -18 -10 -31 6 -9 10 -13 13 -9 7 5 -12 -12 -18 -37 -14 -5 0 -8 -5 -8 -11
0 -9 -4 -8 -10 2 -6 9 -10 10 -10 3 0 -6 -9 -10 -20 -8 -11 2 -22 -1 -26 -7
-4 -6 -10 -5 -15 3 -6 10 -9 11 -9 2 0 -7 -8 -13 -17 -13 -9 0 -13 -3 -10 -7
4 -3 -1 -12 -11 -20 -9 -8 -11 -11 -3 -7 10 5 12 3 5 -7 -5 -8 -9 -17 -9 -21
0 -5 -4 -8 -9 -7 -5 0 -13 -5 -18 -13 -8 -10 -11 -10 -15 0 -2 6 -9 9 -15 6
-6 -4 -14 0 -19 7 -7 11 -9 11 -9 1 0 -10 -5 -10 -20 -2 -14 8 -20 8 -20 0 0
-6 -4 -8 -10 -5 -5 3 -10 1 -10 -6 0 -7 -3 -10 -6 -6 -3 3 -22 -4 -42 -15 -44
-25 -95 -41 -87 -27 4 5 -4 5 -19 -1 -19 -7 -26 -6 -26 2 0 6 -10 3 -22 -8
-12 -10 -18 -13 -14 -6 4 6 2 12 -3 12 -6 0 -11 -5 -11 -11 0 -6 -7 -9 -15 -5
-8 3 -15 1 -15 -4 0 -6 -9 -10 -20 -10 -11 0 -23 -6 -26 -14 -3 -8 -12 -12
-19 -10 -7 3 -16 0 -20 -5 -3 -6 -11 -9 -16 -6 -5 4 -9 1 -9 -6 0 -7 -3 -9 -7
-6 -3 4 -13 1 -21 -6 -13 -9 -14 -9 -8 1 9 15 -6 16 -22 0 -9 -9 -12 -9 -12 1
0 7 -4 10 -9 6 -5 -3 -16 2 -24 10 -12 11 -17 12 -20 2 -4 -9 -8 -9 -15 1 -5
8 -12 13 -16 13 -3 -1 -9 0 -13 0 -5 1 -25 3 -45 3 -25 1 -34 -2 -28 -9 6 -8
0 -10 -20 -9 -17 1 -30 -2 -30 -6 0 -5 -11 -7 -25 -6 -13 2 -22 -1 -19 -5 3
-5 -6 -10 -20 -10 -14 -1 -32 -2 -38 -3 -7 -1 -18 -7 -24 -15 -8 -11 -13 -11
-18 -2 -6 9 -14 8 -33 -4 -14 -10 -22 -12 -19 -6 4 6 3 11 -3 11 -5 0 -13 -5
-16 -10 -5 -8 -11 -8 -20 0 -10 8 -15 8 -21 -1 -5 -8 -3 -9 6 -4 9 5 11 4 6
-4 -6 -9 -11 -9 -22 0 -10 8 -14 8 -14 1 0 -6 -6 -9 -14 -6 -8 3 -23 1 -34 -5
-13 -7 -22 -7 -30 1 -9 9 -12 9 -12 -1 0 -10 -3 -11 -13 -2 -8 6 -17 8 -21 4
-4 -4 -18 -9 -32 -11 -19 -2 -24 1 -19 10 4 7 -1 4 -9 -6 -9 -11 -16 -14 -16
-8 0 10 -5 10 -20 2 -13 -7 -20 -7 -20 -1 0 6 -7 8 -15 5 -8 -4 -12 -11 -8
-18 3 -6 -4 -2 -17 9 -13 11 -20 15 -17 9 4 -7 0 -15 -9 -18 -8 -3 -12 -2 -9
4 7 11 -23 9 -42 -3 -8 -5 -13 -3 -13 4 0 7 -4 8 -12 2 -7 -5 -24 -8 -38 -7
-14 1 -31 -3 -39 -10 -12 -8 -13 -8 -7 2 4 7 2 12 -8 12 -8 0 -18 -5 -21 -10
-5 -8 -12 -7 -22 1 -11 10 -16 10 -23 0 -6 -11 -9 -11 -13 0 -4 11 -6 11 -6 1
-1 -10 -6 -10 -21 -2 -13 7 -20 7 -20 1 0 -7 -9 -7 -26 -1 -14 6 -23 6 -20 1
3 -5 -1 -12 -10 -15 -9 -4 -13 -2 -8 5 4 8 -1 9 -16 4 -17 -5 -21 -4 -16 6 4
8 0 5 -8 -5 -10 -13 -16 -15 -16 -7 0 11 -3 11 -15 1 -12 -10 -15 -10 -15 0 0
10 -3 10 -15 0 -12 -10 -15 -10 -15 1 0 8 -5 6 -14 -6 -13 -18 -13 -18 -24 1
-6 10 -12 14 -12 8 0 -12 -99 -13 -119 0 -9 6 -12 5 -7 -2 4 -7 -7 -10 -34 -9
-22 1 -40 5 -40 10 0 4 -6 5 -12 0 -17 -10 -68 -11 -62 -1 3 4 -2 8 -10 8 -9
0 -16 -5 -16 -11 0 -6 -7 -3 -16 6 -11 11 -20 13 -28 5 -7 -5 -16 -7 -19 -3
-12 12 -58 12 -51 1 5 -7 2 -8 -7 -3 -7 5 -50 9 -94 8 -44 -1 -85 3 -92 8 -7
7 -14 6 -19 -2 -5 -8 -3 -9 6 -4 9 5 11 4 6 -4 -4 -6 -13 -8 -19 -4 -17 10
-97 10 -97 -1 0 -5 -3 -6 -7 -3 -3 4 -13 1 -21 -6 -13 -10 -14 -9 -7 3 8 13 6
13 -8 2 -9 -8 -21 -11 -27 -7 -6 4 -9 1 -8 -7 2 -7 -4 -13 -12 -14 -8 0 -23
-4 -33 -9 -15 -6 -16 -10 -5 -16 11 -7 11 -9 0 -9 -10 0 -10 -4 2 -15 8 -9 13
-22 10 -29 -3 -7 2 -21 11 -30 9 -9 11 -16 5 -16 -6 0 -8 -5 -5 -10 4 -6 11
-7 17 -4 7 5 9 1 5 -9 -3 -9 0 -18 9 -21 8 -3 14 -13 14 -21 0 -10 5 -13 12
-9 8 5 9 2 5 -10 -4 -10 -3 -15 3 -11 6 3 10 0 10 -8 0 -17 34 -49 43 -40 4 3
7 -1 7 -10 0 -9 4 -17 9 -17 14 0 19 -48 7 -61 -8 -9 -8 -10 1 -5 14 8 30 -13
17 -23 -12 -8 -14 -41 -2 -41 5 0 6 -6 1 -12 -8 -13 -11 -27 -16 -63 -5 -32
-16 -45 -38 -45 -13 0 -18 -4 -13 -12 5 -7 3 -8 -6 -3 -21 13 -91 14 -83 1 4
-6 -1 -5 -10 2 -12 11 -20 11 -34 2 -17 -11 -17 -11 2 -6 18 5 18 5 4 -7 -14
-11 -14 -14 -2 -26 8 -7 12 -19 9 -27 -3 -9 0 -11 11 -7 11 4 14 2 9 -5 -5 -8
1 -12 15 -12 12 0 20 -3 16 -6 -7 -7 17 -34 31 -34 5 0 15 -7 22 -15 7 -9 15
-13 18 -10 3 3 12 -1 20 -8 13 -10 14 -9 8 1 -6 10 -3 13 10 11 11 -2 25 0 32
4 7 5 15 2 18 -8 6 -14 8 -14 26 2 11 9 18 13 16 8 -5 -18 29 -58 43 -49 9 5
11 2 6 -9 -6 -17 18 -31 36 -20 7 4 5 -2 -3 -12 -8 -11 -10 -16 -3 -11 19 11
84 -4 76 -18 -4 -6 1 -5 10 3 13 10 20 11 31 2 10 -9 16 -9 21 -1 5 8 11 7 23
-2 9 -7 13 -8 9 -2 -4 7 5 11 23 11 16 0 31 -6 34 -14 3 -7 1 -13 -5 -13 -6 0
-9 -6 -6 -14 3 -8 -1 -13 -11 -12 -9 0 -16 -4 -15 -10 1 -7 -6 -10 -17 -7 -12
3 -20 0 -20 -7 0 -7 -8 -19 -17 -27 -10 -8 -12 -12 -6 -8 9 4 11 1 7 -9 -3 -9
-10 -13 -15 -10 -5 3 -9 1 -9 -4 0 -5 -14 -8 -30 -7 -17 1 -33 -1 -35 -5 -2
-3 -18 -5 -34 -4 -17 1 -32 -1 -32 -4 -18 -90 -17 -111 3 -118 10 -3 16 -9 13
-14 -3 -5 4 -11 15 -15 11 -4 17 -11 14 -17 -5 -7 -2 -8 5 -3 11 6 51 -25 51
-40 0 -4 7 -13 15 -21 8 -9 15 -12 15 -8 0 4 10 -1 22 -12 12 -10 18 -13 14
-6 -7 11 -4 11 12 1 12 -7 18 -17 15 -23 -3 -5 -1 -6 5 -2 7 4 26 -7 44 -26
31 -32 65 -48 51 -25 -3 7 2 5 13 -4 10 -8 29 -14 42 -13 12 0 22 -3 22 -8 0
-5 10 -4 21 3 12 6 19 7 16 2 -3 -4 1 -13 8 -20 10 -10 14 -10 17 -1 3 7 11
-2 18 -19 8 -17 19 -29 24 -26 5 4 7 -1 3 -11 -4 -9 -3 -15 2 -11 14 8 41 -6
41 -22 0 -8 3 -12 8 -10 4 2 17 -6 29 -19 15 -15 18 -24 10 -27 -7 -3 -2 -6
11 -6 12 -1 22 -6 22 -13 0 -6 3 -8 7 -5 3 4 12 2 19 -4 8 -6 20 -9 29 -6 8 4
17 2 20 -4 4 -5 11 -7 16 -4 5 4 9 1 9 -5 0 -7 -6 -10 -14 -7 -8 3 -17 1 -20
-6 -3 -9 -5 -9 -5 1 -1 6 -6 12 -12 12 -5 0 -7 -4 -4 -10 3 -5 -1 -10 -10 -10
-10 0 -13 5 -9 13 6 8 3 8 -9 -1 -9 -8 -21 -11 -27 -7 -5 3 -10 2 -10 -3 0 -4
-23 -7 -51 -4 -35 2 -49 0 -45 -7 4 -7 1 -8 -8 -5 -9 3 -13 11 -9 18 4 8 2 8
-7 -1 -7 -6 -19 -9 -26 -6 -8 3 -22 -1 -31 -8 -15 -12 -16 -12 -10 4 5 14 3
16 -11 9 -24 -12 -41 -9 -52 8 -9 13 -10 13 -10 0 0 -12 -8 -15 -35 -12 -19 2
-35 9 -35 16 0 6 -5 4 -10 -4 -8 -12 -11 -13 -19 -1 -6 9 -11 10 -15 2 -9 -15
-28 -3 -20 12 3 7 -2 3 -10 -7 -9 -11 -16 -14 -16 -8 0 7 -9 12 -20 12 -11 0
-20 6 -20 13 0 8 -4 7 -10 -3 -5 -8 -10 -10 -10 -4 0 6 -6 11 -12 12 -38 3
-54 8 -67 20 -7 7 -20 11 -27 8 -8 -3 -14 -2 -14 3 0 5 -14 11 -31 15 -21 4
-28 10 -23 18 4 7 4 10 -1 6 -4 -4 -15 -2 -23 5 -13 9 -14 9 -8 -1 4 -6 -9 -3
-28 9 -19 11 -40 18 -46 14 -5 -3 -13 1 -16 9 -3 9 -16 16 -28 16 -12 0 -26 4
-32 10 -5 5 -26 10 -46 12 -20 1 -34 6 -32 10 3 4 -4 8 -16 8 -12 0 -31 5 -42
11 -16 8 -19 8 -13 -1 4 -7 -4 -4 -19 5 -14 10 -26 13 -26 9 0 -5 -5 -2 -10 6
-9 13 -10 13 -10 0 -1 -12 -3 -12 -11 2 -6 11 -16 15 -26 11 -12 -5 -14 -3 -8
8 7 11 5 11 -10 -1 -10 -8 -16 -10 -13 -5 10 16 -21 30 -63 30 -28 0 -35 3
-31 15 3 8 2 12 -3 8 -4 -4 -14 -3 -22 3 -9 9 -13 8 -13 0 0 -7 -9 -3 -21 8
-12 11 -27 17 -35 14 -8 -3 -14 0 -14 7 0 6 -4 9 -9 5 -5 -3 -12 -1 -16 5 -4
6 -11 8 -16 5 -5 -4 -9 -2 -9 4 0 6 -7 8 -15 5 -8 -4 -15 -1 -15 4 0 6 -9 9
-20 7 -13 -2 -20 2 -20 11 0 8 -5 12 -10 9 -6 -4 -17 -1 -25 5 -8 7 -15 9 -15
5 0 -4 -11 0 -24 8 -18 12 -26 13 -35 4 -10 -9 -12 -9 -9 3 2 8 -3 15 -9 16
-7 1 -14 2 -15 3 -2 2 -14 5 -28 7 -13 2 -28 10 -32 17 -4 6 -8 9 -8 4 0 -4
-17 0 -38 8 -20 9 -38 16 -39 16 -16 -4 -23 1 -17 12 5 8 2 8 -9 -2 -13 -10
-17 -10 -17 -1 0 10 -3 10 -16 0 -12 -11 -15 -11 -12 1 2 9 -5 13 -19 12 -13
-2 -23 2 -23 9 0 6 -3 8 -7 5 -3 -4 -13 -1 -21 6 -13 9 -14 9 -8 0 5 -9 2 -11
-8 -7 -9 3 -16 11 -16 17 0 6 -3 8 -6 4 -4 -3 -28 2 -55 12 -26 10 -50 16 -53
13 -4 -3 -6 0 -6 7 0 7 -5 9 -10 6 -6 -3 -10 -2 -10 4 0 6 -6 8 -14 5 -8 -3
-17 -1 -21 5 -3 6 -15 11 -26 11 -10 0 -19 5 -19 10 0 6 -3 9 -7 8 -5 -1 -21
4 -36 10 -16 7 -37 12 -48 12 -11 0 -17 5 -14 10 4 6 -5 10 -20 10 -14 0 -24
3 -22 8 3 4 -6 8 -20 9 -14 0 -29 7 -33 13 -5 7 -15 10 -23 7 -9 -3 -17 -1
-19 4 -4 11 -57 21 -103 20 -33 -1 -80 -7 -80 -11 0 -1 -10 -3 -22 -4 -13 -2
-23 2 -23 7 0 6 -3 7 -6 4 -4 -3 -15 -2 -25 4 -15 7 -19 7 -17 -3 2 -7 -1 -12
-7 -11 -5 0 -16 -5 -23 -13 -10 -11 -10 -14 0 -15 7 0 3 -4 -10 -10 -13 -5
-21 -13 -18 -18 3 -5 -1 -14 -9 -21 -8 -7 -15 -18 -15 -24 0 -6 5 -4 10 4 14
22 12 6 -3 -24 -8 -14 -16 -23 -19 -21 -3 3 -4 -6 -3 -20 2 -14 -1 -25 -7 -25
-6 0 -4 -7 3 -17 8 -9 9 -14 3 -10 -16 10 -25 -18 -11 -33 9 -10 9 -11 0 -6
-8 4 -11 -3 -11 -24 1 -16 5 -30 10 -30 5 0 6 -4 3 -10 -3 -5 -1 -10 5 -10 6
0 8 -4 5 -10 -3 -5 -3 -16 2 -22 15 -24 23 -98 11 -98 -4 0 -8 -8 -8 -17 0
-15 -2 -16 -10 -3 -8 13 -10 12 -10 -2 0 -10 -4 -18 -9 -18 -13 0 -67 -50 -55
-50 5 0 1 -5 -8 -11 -10 -5 -18 -15 -18 -20 0 -6 5 -7 12 -3 7 5 8 3 2 -7 -5
-8 -10 -25 -12 -39 -1 -14 -5 -32 -9 -40 -6 -15 -12 -60 -15 -112 -1 -16 -5
-28 -9 -28 -4 0 -6 -11 -4 -25 1 -14 -2 -25 -8 -25 -5 0 -4 -7 3 -15 10 -12
10 -15 0 -15 -8 0 -10 -3 -7 -7 4 -3 2 -12 -4 -20 -9 -10 -8 -13 1 -13 9 0 9
-4 -1 -17 -12 -15 -12 -16 1 -8 12 7 13 6 4 -6 -5 -8 -12 -32 -13 -54 -2 -22
-4 -52 -5 -67 -1 -15 3 -30 8 -32 7 -3 7 -5 -1 -5 -13 -1 -5 -41 8 -41 5 0 6
-7 3 -15 -4 -9 0 -15 7 -15 11 0 11 -3 -1 -10 -11 -7 -11 -10 -2 -10 7 0 10
-4 7 -10 -3 -5 0 -10 7 -10 9 0 9 -3 -2 -10 -10 -6 -11 -10 -2 -10 6 0 12 -7
12 -15 0 -8 6 -15 13 -15 8 0 7 -4 -3 -10 -13 -9 -13 -10 0 -10 12 0 12 -2 2
-9 -11 -7 -11 -9 1 -14 10 -4 13 -13 10 -26 -3 -13 -1 -21 7 -21 9 0 10 -3 1
-13 -8 -10 -7 -17 1 -25 9 -9 9 -12 -3 -12 -12 0 -12 -2 1 -10 13 -9 13 -10 0
-10 -13 0 -13 -1 0 -10 12 -8 12 -12 2 -18 -7 -5 -14 -20 -16 -34 -1 -14 -10
-33 -19 -43 -10 -9 -15 -21 -12 -26 4 -5 1 -9 -4 -9 -6 0 -10 -6 -9 -12 2 -7
-4 -12 -12 -10 -11 3 -9 -2 5 -18 13 -14 14 -19 4 -15 -10 4 -15 -1 -15 -15 0
-11 4 -20 9 -20 4 0 5 -4 2 -10 -3 -5 -1 -10 5 -10 6 0 8 -4 5 -10 -3 -5 -2
-10 4 -10 5 0 13 -9 16 -21 4 -12 14 -29 23 -39 37 -41 43 -50 32 -50 -6 0 -8
-5 -5 -10 4 -6 10 -8 14 -6 4 3 7 -29 6 -70 -1 -49 -6 -78 -14 -83 -10 -6 -8
-10 4 -15 13 -5 15 -10 6 -19 -8 -10 -7 -17 2 -27 9 -10 9 -11 0 -6 -7 4 -13
2 -13 -3 0 -6 5 -11 11 -11 6 0 8 -7 5 -15 -3 -9 1 -18 9 -21 8 -3 11 -12 8
-21 -5 -12 -3 -14 7 -8 10 6 12 4 7 -9 -4 -10 -1 -19 8 -22 8 -4 15 -15 15
-27 0 -11 3 -18 6 -14 11 11 33 -17 22 -30 -6 -8 -3 -13 11 -18 12 -3 21 -11
21 -17 0 -6 8 -17 18 -25 11 -10 12 -12 2 -8 -10 4 -9 2 3 -8 9 -8 17 -19 17
-26 0 -6 5 -11 10 -11 6 0 10 -7 10 -15 0 -8 9 -31 20 -50 11 -20 18 -40 15
-45 -3 -4 0 -10 7 -12 6 -2 12 -12 14 -21 1 -11 -2 -15 -9 -10 -7 3 -4 -3 5
-14 21 -22 24 -38 6 -27 -6 4 0 -8 15 -27 20 -27 24 -38 15 -47 -9 -9 -8 -12
4 -12 11 0 15 -6 11 -20 -3 -12 0 -20 6 -20 7 0 10 -4 7 -8 -3 -5 2 -21 10
-37 8 -16 16 -36 17 -44 2 -9 8 -26 15 -37 6 -12 8 -25 4 -29 -4 -5 -1 -5 6
-1 7 4 12 2 12 -5 0 -6 8 -18 18 -26 9 -8 11 -12 5 -8 -20 10 -15 -2 12 -29
14 -14 25 -30 25 -36 0 -6 4 -9 8 -6 4 2 14 -9 21 -26 10 -22 16 -27 22 -17 7
11 9 10 9 -3 0 -11 6 -16 20 -13 11 2 20 -1 20 -7 0 -5 7 -7 16 -4 9 3 12 2 9
-5 -4 -6 2 -13 14 -16 12 -3 21 -13 21 -24 0 -10 4 -20 8 -23 9 -6 7 -59 -3
-75 -3 -6 0 -11 7 -11 9 0 9 -3 2 -8 -11 -7 -14 -22 -14 -59 0 -10 0 -28 0
-40 0 -13 4 -23 8 -23 5 0 9 -7 10 -15 1 -8 3 -22 4 -30 1 -8 5 -15 9 -15 12
0 89 -77 89 -90 0 -6 5 -8 10 -5 6 3 10 1 10 -5 0 -6 4 -9 9 -6 5 3 11 -3 14
-14 3 -11 13 -20 22 -20 10 0 13 -5 9 -12 -5 -8 -2 -9 9 -5 10 4 17 2 17 -4 0
-6 7 -9 15 -6 8 4 17 2 20 -2 2 -5 24 -9 47 -10 65 -3 68 -4 68 -15 0 -6 4 -5
9 3 6 9 10 10 16 2 5 -9 10 -9 21 0 12 10 16 8 21 -9 4 -17 9 -20 24 -12 14 8
21 5 33 -12 9 -12 16 -17 16 -10 0 9 5 8 17 -4 10 -10 19 -12 21 -6 2 6 10 8
18 5 8 -3 14 0 14 6 0 6 9 11 20 11 11 0 20 5 20 11 0 5 5 7 10 4 6 -3 10 -1
10 6 0 7 3 10 6 6 4 -3 13 1 21 9 9 8 23 12 31 9 9 -3 13 -3 9 1 -11 11 13 33
29 27 10 -4 12 0 8 13 -4 11 -4 16 1 12 4 -4 15 -2 23 5 13 10 15 9 8 -3 -4
-8 1 -6 11 6 10 12 29 26 41 33 13 7 19 17 16 23 -5 7 -2 8 5 3 8 -4 21 1 32
14 11 12 24 21 30 21 6 0 7 5 3 12 -5 8 -2 9 9 5 9 -3 16 -3 14 1 -1 4 24 32
55 63 31 32 54 59 52 62 -3 3 3 10 14 16 11 6 22 7 26 3 4 -3 4 1 1 10 -4 11
1 20 14 28 12 6 21 18 21 26 0 8 5 12 10 9 6 -3 10 -1 10 5 0 6 4 8 10 5 6 -4
7 1 3 11 -4 12 -3 15 5 10 7 -4 12 -2 12 4 0 6 5 8 12 4 6 -4 8 -3 5 3 -7 10
62 79 76 75 4 -1 7 6 7 17 0 12 7 18 17 17 10 0 18 5 18 12 0 8 11 20 25 27
14 8 21 14 16 15 -5 0 1 8 12 19 12 10 19 21 17 25 -3 3 -2 4 1 1 11 -7 45 15
39 26 -6 8 8 13 28 10 5 -1 6 3 3 8 -3 5 1 14 9 21 8 7 12 17 8 23 -3 5 -1 7
4 4 6 -4 21 2 33 13 13 11 20 20 17 20 -4 0 1 8 11 18 9 11 20 17 24 15 4 -2
9 6 13 16 3 11 15 23 25 26 11 3 19 12 17 18 -1 7 3 11 10 10 6 -2 15 6 18 17
4 11 11 17 17 14 8 -5 9 -1 5 10 -4 10 -3 15 3 11 13 -8 47 28 42 45 -3 8 0
10 7 6 6 -4 27 9 48 31 21 21 41 37 45 35 5 -1 8 5 8 15 0 9 3 13 7 10 3 -4
13 2 20 13 8 11 19 18 24 15 5 -4 9 -2 9 4 0 5 9 13 20 16 11 4 18 10 16 14
-3 4 3 7 12 8 41 5 59 10 90 26 17 10 32 15 32 12 0 -3 6 0 14 7 8 7 11 18 8
23 -3 6 3 3 13 -5 11 -9 16 -10 11 -2 -4 7 -2 12 4 12 6 0 9 4 6 9 -3 5 1 12
10 15 10 4 13 2 8 -7 -4 -6 3 -2 15 11 12 12 26 20 32 17 5 -4 12 0 15 9 3 9
12 12 21 9 11 -4 14 -2 9 5 -6 10 17 18 27 10 2 -2 16 5 31 16 17 11 25 13 20
5 -6 -11 -5 -12 7 -2 9 7 30 14 48 15 18 1 34 5 37 9 2 4 13 5 24 2 11 -3 20
0 20 6 0 6 7 8 17 4 10 -4 14 -2 10 4 -3 5 0 10 8 10 8 0 15 -4 15 -9 0 -5 10
-4 21 3 12 6 32 9 45 6 13 -2 24 -1 24 4 0 9 20 6 39 -5 10 -7 12 -5 6 3 -5 9
-1 12 11 11 11 -1 21 -1 24 0 20 7 40 7 40 -1 0 -6 8 -5 20 1 15 8 20 8 20 -2
0 -9 3 -9 12 0 13 13 32 16 24 4 -2 -4 4 -8 14 -8 10 0 16 4 14 8 -3 4 -1 8 5
8 5 0 13 -5 16 -10 4 -6 13 -7 24 -1 10 6 23 6 31 1 9 -5 19 -5 27 2 7 6 13 6
13 1 0 -5 26 -8 58 -7 31 0 63 -3 70 -9 8 -6 12 -5 12 4 0 11 2 11 10 -1 8
-12 10 -12 10 -1 0 9 4 10 13 4 6 -5 33 -9 59 -8 33 2 45 -1 41 -9 -4 -6 1 -5
10 3 13 10 17 10 17 1 0 -10 3 -10 15 0 14 12 20 7 15 -15 -1 -5 9 -1 21 10
12 11 19 14 15 8 -5 -9 0 -12 16 -12 13 1 31 -2 41 -6 11 -5 17 -3 17 6 0 10
3 10 11 2 6 -6 18 -9 27 -6 10 4 13 2 8 -5 -5 -9 -1 -9 18 -2 14 5 26 6 26 2
0 -4 16 -7 37 -7 20 0 38 -5 40 -12 5 -13 -71 -38 -87 -28 -6 3 -10 2 -10 -3
0 -6 -7 -13 -16 -16 -10 -4 -13 -2 -8 7 5 8 2 7 -9 -2 -9 -7 -17 -10 -17 -5 0
5 -7 0 -15 -10 -8 -11 -15 -14 -15 -7 0 7 -5 9 -12 4 -16 -9 -37 -14 -61 -14
-9 0 -15 -4 -12 -8 7 -12 -29 -8 -37 4 -5 6 -8 5 -8 -2 0 -7 -9 -13 -21 -13
-13 0 -18 -4 -13 -12 6 -10 5 -10 -7 -1 -9 7 -20 8 -28 3 -8 -4 -21 -6 -29 -2
-9 3 -13 1 -9 -4 4 -7 -6 -9 -25 -6 -24 4 -29 2 -23 -9 7 -11 4 -10 -10 1 -15
12 -17 12 -10 1 6 -11 2 -13 -18 -9 -15 3 -24 2 -22 -2 3 -5 -2 -11 -11 -14
-9 -4 -13 -2 -8 5 3 6 -5 3 -20 -6 -14 -10 -26 -13 -26 -9 0 5 -10 -2 -21 -16
-17 -21 -20 -21 -14 -5 6 18 4 18 -15 -3 -12 -12 -26 -19 -32 -16 -7 4 -8 2
-4 -4 4 -7 1 -12 -8 -12 -9 0 -16 -5 -16 -11 0 -6 -7 -8 -16 -5 -8 3 -13 2
-10 -2 7 -12 -6 -26 -37 -40 -17 -7 -25 -17 -21 -24 4 -7 3 -8 -4 -4 -7 4 -24
-5 -39 -19 -16 -14 -35 -32 -44 -41 -9 -8 -26 -16 -38 -17 -14 -1 -20 -6 -16
-15 3 -10 0 -12 -10 -8 -9 3 -20 -3 -27 -14 -7 -11 -21 -20 -32 -20 -11 0 -16
-3 -13 -7 4 -3 -2 -13 -13 -20 -11 -8 -18 -19 -15 -24 3 -5 -2 -6 -11 -2 -12
4 -15 3 -10 -5 4 -7 2 -12 -4 -12 -6 0 -8 -4 -5 -10 3 -5 3 -10 -2 -10 -12 0
-43 -58 -43 -80 0 -10 -5 -22 -12 -26 -7 -5 -5 -11 7 -21 13 -9 14 -13 5 -13
-9 0 -7 -5 6 -15 13 -10 14 -14 5 -15 -10 0 -11 -3 -3 -13 8 -10 4 -20 -16
-42 -30 -32 -30 -34 -10 -46 10 -7 10 -9 0 -9 -8 0 -6 -7 7 -21 11 -13 24 -18
32 -14 7 5 10 4 6 -2 -4 -6 1 -19 9 -29 9 -10 13 -12 9 -4 -4 10 -2 9 8 -2 8
-10 17 -14 21 -10 4 4 7 3 6 -3 -4 -20 0 -36 8 -31 4 2 14 -4 21 -16 10 -16
10 -19 -1 -13 -10 6 -10 5 -2 -4 13 -14 6 -61 -8 -61 -6 0 -7 -7 -4 -15 3 -9
-1 -18 -10 -22 -8 -3 -13 -12 -10 -20 4 -9 2 -11 -6 -7 -7 5 -9 2 -5 -8 3 -9
-2 -26 -10 -39 -13 -17 -13 -20 -2 -14 8 5 6 0 -4 -11 -35 -37 -59 -69 -73
-96 -8 -16 -18 -28 -23 -28 -5 0 -7 -10 -3 -22 3 -14 2 -19 -6 -14 -7 4 -12 1
-12 -8 0 -9 -5 -16 -11 -16 -5 0 -7 -4 -4 -10 3 -5 -6 -12 -20 -16 -14 -3 -25
-10 -25 -16 0 -5 -4 -7 -9 -4 -10 6 -61 -16 -61 -26 0 -5 -5 -8 -11 -8 -11 0
-40 -25 -39 -35 0 -3 0 -6 -1 -7 -6 -20 -6 -37 1 -33 4 3 10 -2 14 -10 3 -8
12 -15 21 -15 8 0 15 -6 15 -12 0 -9 4 -8 10 2 7 11 10 11 10 2 0 -7 5 -10 10
-7 6 3 10 -1 10 -10 0 -9 4 -14 9 -11 5 3 11 -1 15 -9 3 -8 1 -15 -3 -15 -5 0
-7 -10 -3 -22 4 -16 2 -19 -9 -13 -12 8 -12 6 0 -8 10 -13 10 -17 1 -17 -7 0
-10 -7 -6 -15 3 -8 1 -15 -4 -15 -6 0 -10 -9 -10 -20 0 -11 -4 -20 -10 -20 -5
0 -7 -7 -4 -15 4 -8 1 -15 -5 -15 -6 0 -11 -9 -11 -20 0 -10 -10 -24 -22 -31
-20 -11 -20 -12 -4 -21 12 -7 26 -7 43 1 13 6 35 11 48 11 17 0 25 6 26 18 0
14 2 14 9 -3 5 -11 9 -14 9 -7 1 7 5 11 10 8 5 -3 14 0 20 8 6 7 24 12 41 11
16 -1 30 3 30 9 0 6 4 5 9 -2 7 -11 9 -11 14 2 4 9 13 13 22 10 9 -4 15 -1 15
7 0 11 3 11 10 -1 6 -9 10 -11 10 -3 0 7 7 10 15 7 8 -4 15 -1 15 4 0 6 9 9
20 7 11 -2 20 0 20 6 0 5 5 9 11 9 5 0 7 -6 4 -12 -4 -7 1 -4 9 6 12 15 16 16
16 5 1 -10 5 -9 15 5 11 14 15 16 15 5 1 -11 3 -11 10 2 6 10 20 15 35 14 14
-2 25 1 25 6 0 4 7 6 15 3 9 -4 15 0 15 7 0 11 3 11 10 -1 7 -12 10 -12 10 -1
0 7 6 11 15 7 8 -3 15 0 15 6 0 6 3 8 7 5 3 -4 15 1 26 10 11 10 17 12 13 6
-9 -15 10 -18 19 -3 4 6 11 8 16 5 5 -4 9 0 9 7 0 9 3 9 10 -2 6 -9 10 -10 10
-3 0 6 9 10 20 8 11 -2 18 0 15 4 -3 5 2 12 11 15 10 4 13 2 8 -7 -6 -9 -5 -9
7 0 9 7 29 15 45 17 43 5 65 17 57 30 -4 6 1 5 10 -3 16 -12 22 -8 18 12 -1 5
4 5 11 1 18 -12 39 -14 33 -4 -3 4 2 11 11 14 9 4 13 2 8 -5 -3 -6 5 -4 18 5
14 9 28 13 31 9 4 -3 7 -1 7 5 0 6 9 9 20 7 11 -2 18 0 15 4 -3 5 2 11 9 14 9
4 17 -1 19 -11 4 -15 5 -15 6 1 0 10 6 15 11 12 6 -3 10 -2 10 4 0 6 7 8 15 5
8 -4 15 -1 15 6 0 6 5 8 10 5 6 -3 10 -2 10 4 0 6 6 8 14 5 8 -3 17 0 21 6 5
8 11 8 21 -1 12 -10 13 -9 8 4 -4 12 -1 15 15 12 12 -2 21 1 21 7 0 6 3 8 7 5
3 -4 15 1 26 10 11 10 17 12 13 5 -4 -7 7 -4 27 7 23 13 38 16 45 9 6 -6 12
-6 17 3 6 8 4 10 -5 4 -9 -6 -11 -4 -5 4 4 7 16 11 26 8 11 -3 17 -1 13 4 -5
9 17 13 45 10 7 -2 10 2 7 7 -3 5 8 8 24 7 17 -1 30 3 30 9 0 6 5 4 10 -4 5
-8 10 -10 10 -4 0 7 7 15 16 18 10 4 13 2 8 -7 -5 -9 -4 -9 7 1 7 6 24 12 37
12 14 0 21 4 16 11 -4 7 1 7 16 -1 18 -10 21 -9 15 1 -6 9 -3 11 8 6 10 -4 17
-1 17 6 0 8 4 6 10 -3 7 -12 10 -12 10 -1 0 7 6 11 15 8 8 -4 17 -1 21 4 3 6
17 9 30 6 13 -2 24 -1 24 3 0 4 7 11 16 14 10 4 13 2 8 -7 -6 -9 -5 -9 8 0 8
7 18 10 21 6 4 -3 7 -2 7 4 0 6 9 9 22 5 12 -3 19 -1 15 4 -3 6 11 11 31 12
20 2 39 8 43 14 4 7 8 6 12 -3 5 -12 7 -11 16 1 5 8 13 11 17 7 4 -4 18 0 32
9 15 10 21 11 17 3 -6 -9 -3 -11 9 -6 10 4 20 7 22 7 3 0 3 4 0 8 -6 10 25 9
42 -2 7 -4 12 -4 11 1 -3 20 2 27 11 13 7 -11 10 -11 10 -2 0 7 5 10 10 7 6
-3 10 0 10 7 0 9 3 9 10 -2 6 -9 10 -11 10 -3 0 7 7 10 15 7 8 -4 15 -2 15 4
0 6 11 9 25 7 14 -1 25 2 25 7 0 5 5 6 10 3 6 -4 10 -3 9 2 -4 20 2 24 18 12
9 -8 14 -9 11 -4 -11 18 15 32 69 37 6 1 9 7 6 14 -6 15 13 28 22 14 5 -8 11
-7 21 1 7 6 11 15 8 20 -3 5 1 6 9 3 8 -3 21 2 30 10 12 12 17 13 20 3 3 -7 6
-6 6 5 1 10 8 15 19 14 9 -2 23 4 30 13 8 9 11 10 7 3 -4 -7 8 -5 28 7 19 11
38 17 41 14 3 -4 6 -1 6 5 0 7 5 12 11 12 5 0 7 -6 4 -12 -4 -7 0 -5 7 4 8 9
30 18 49 21 18 2 33 9 32 15 -1 5 7 8 19 4 16 -4 19 -2 13 8 -6 10 -4 11 6 4
18 -11 32 -12 40 -1 3 4 18 3 33 -3 17 -6 25 -6 21 0 -9 14 18 12 34 -2 9 -8
11 -8 8 -2 -4 7 0 14 8 18 8 3 15 2 15 -2 0 -5 15 -7 33 -5 17 2 40 4 49 4 10
0 20 5 23 10 4 5 11 7 16 4 5 -4 9 -2 9 3 0 5 11 8 25 7 14 -2 23 1 19 6 -3 5
4 9 14 9 11 0 36 7 55 15 44 18 50 19 41 3 -4 -7 2 -5 14 6 12 10 28 16 37 13
8 -4 15 -1 15 5 0 6 3 8 7 5 3 -4 12 1 20 11 8 9 12 11 8 5 -3 -7 -1 -13 4
-13 6 0 11 4 11 10 0 5 7 7 15 4 9 -4 15 0 15 7 0 12 2 12 9 1 7 -11 11 -11
24 2 11 12 17 13 20 3 4 -9 6 -9 6 0 1 7 8 10 18 6 10 -4 14 -2 10 4 -5 7 1 9
15 5 16 -4 19 -2 13 8 -6 10 -4 12 10 7 9 -4 24 -2 31 4 11 9 14 8 14 -2 0 -8
6 -5 15 7 8 10 15 15 15 10 0 -5 7 -3 15 4 10 9 15 9 15 1 0 -6 5 -11 11 -11
6 0 9 6 6 14 -4 10 2 13 23 12 16 -1 26 2 23 7 -3 5 0 7 8 5 8 -3 29 1 47 8
24 10 31 10 25 1 -5 -9 -3 -9 9 0 8 7 18 10 21 6 4 -3 7 -1 7 5 0 6 7 9 15 6
9 -4 15 0 15 7 0 9 3 10 8 4 10 -15 35 -18 26 -4 -5 9 -1 10 14 7 13 -4 22 -1
22 5 0 8 3 7 9 -1 6 -11 10 -10 15 4 6 16 8 16 16 4 6 -10 10 -11 10 -3 0 7 7
10 17 6 9 -4 14 -2 10 3 -6 11 33 11 51 0 7 -4 14 -1 17 6 3 8 15 14 25 15 13
1 18 -2 13 -10 -3 -7 3 -3 15 7 17 14 22 16 22 5 0 -9 3 -10 8 -4 4 6 17 10
30 9 12 -1 25 3 28 7 3 5 14 5 24 -1 13 -7 21 -7 25 0 5 8 12 7 23 -2 13 -11
14 -11 8 1 -6 9 -5 12 5 9 8 -3 22 -1 31 3 11 6 22 4 31 -6 11 -11 16 -11 20
-2 3 8 38 12 121 12 70 0 116 4 116 10 0 6 4 4 9 -3 11 -17 21 -17 32 0 7 10
9 10 9 0 0 -10 5 -10 20 -2 11 6 20 7 20 3 0 -7 35 -8 83 -4 5 1 5 7 2 14 -4
6 1 3 9 -7 11 -14 16 -15 16 -6 0 10 3 11 11 3 7 -7 21 -8 40 -3 16 5 29 5 29
1 0 -9 37 -8 46 2 4 4 13 2 21 -4 10 -9 17 -8 28 1 10 9 15 9 15 1 0 -6 7 -11
15 -11 8 0 15 6 15 13 0 9 2 9 9 -1 4 -8 11 -13 15 -13 29 4 56 -1 51 -9 -3
-6 -2 -10 2 -10 5 0 14 -9 21 -21 9 -13 9 -18 2 -14 -7 4 -11 1 -9 -6 4 -31
-2 -60 -10 -55 -5 4 -8 -2 -7 -11 2 -10 -4 -24 -13 -31 -12 -10 -12 -12 -1 -6
13 7 13 5 1 -9 -7 -9 -10 -17 -5 -17 5 0 3 -4 -5 -9 -7 -5 -13 -20 -13 -35 0
-14 -4 -24 -8 -21 -4 3 -10 -4 -13 -15 -3 -11 -1 -18 4 -14 5 3 6 -2 3 -10 -3
-9 -10 -13 -15 -10 -5 3 -9 -6 -9 -20 0 -14 -5 -26 -11 -26 -5 0 -8 -4 -4 -10
6 -10 -13 -50 -30 -62 -6 -5 -6 -8 -1 -8 6 0 1 -7 -10 -16 -10 -8 -12 -12 -4
-8 12 7 13 5 3 -8 -7 -8 -10 -18 -6 -21 3 -4 1 -7 -5 -7 -7 0 -12 -9 -12 -20
0 -11 -5 -20 -10 -20 -7 0 -7 -6 0 -19 13 -26 13 -34 -2 -25 -9 5 -9 3 1 -9 7
-9 11 -26 8 -37 -3 -12 -1 -18 5 -14 7 5 9 -2 6 -19 -3 -16 0 -31 9 -38 10 -9
10 -15 2 -25 -9 -11 -8 -14 1 -14 10 0 10 -3 0 -15 -7 -8 -8 -15 -3 -15 5 0
10 -7 10 -15 0 -8 -5 -15 -10 -15 -5 0 -6 -7 -3 -16 4 -11 -1 -18 -14 -21 -11
-3 -20 -10 -20 -15 0 -5 6 -6 13 -2 6 4 -6 -10 -28 -31 -22 -21 -40 -42 -40
-47 0 -4 -4 -7 -8 -5 -5 1 -15 -11 -23 -26 -8 -15 -19 -25 -24 -22 -6 3 -7 0
-4 -8 3 -8 -1 -21 -8 -28 -7 -8 -13 -23 -12 -34 0 -11 -5 -26 -10 -34 -8 -11
-8 -13 0 -8 7 4 10 -8 9 -36 -1 -23 3 -48 9 -56 9 -12 8 -13 -3 -6 -11 6 -13
3 -7 -18 3 -14 1 -29 -5 -32 -7 -5 -4 -15 6 -32 10 -14 12 -23 7 -19 -6 3 -13
2 -17 -4 -3 -5 -1 -10 6 -10 7 0 4 -7 -7 -16 -10 -8 -13 -13 -6 -9 6 3 12 1
12 -4 0 -6 -5 -11 -11 -11 -6 0 -8 -7 -5 -16 3 -8 2 -12 -4 -9 -6 3 -13 -1
-16 -9 -3 -9 -11 -13 -18 -9 -6 4 -5 -1 3 -11 12 -15 12 -17 0 -14 -8 2 -13
-2 -12 -9 2 -7 -3 -10 -10 -7 -13 5 -64 -45 -59 -58 1 -5 -2 -8 -8 -8 -5 0
-10 -7 -10 -15 0 -8 -5 -15 -11 -15 -5 0 -7 -4 -4 -10 3 -5 1 -10 -4 -10 -6 0
-11 -7 -11 -15 0 -9 -6 -12 -15 -9 -9 4 -15 0 -15 -10 0 -9 -5 -16 -11 -16 -5
0 -7 -4 -4 -10 3 -5 -1 -10 -9 -10 -9 0 -15 -6 -14 -12 2 -7 -3 -12 -9 -10 -7
1 -13 -2 -13 -7 0 -13 -56 -71 -69 -71 -6 0 -11 -8 -11 -17 0 -9 -3 -14 -6
-11 -7 8 -44 -28 -44 -42 0 -5 -11 -17 -26 -26 -14 -10 -23 -23 -20 -31 3 -8
1 -11 -5 -8 -5 4 -21 -5 -33 -18 -13 -14 -27 -23 -30 -20 -3 4 -6 1 -6 -6 0
-7 -4 -10 -9 -6 -5 3 -13 -4 -16 -15 -6 -18 -9 -19 -23 -8 -12 10 -14 10 -8 0
5 -8 -2 -16 -23 -23 -17 -6 -31 -15 -31 -20 0 -5 -7 -9 -15 -9 -9 0 -18 -6
-21 -14 -3 -8 -11 -13 -19 -10 -7 3 -20 -2 -29 -11 -15 -16 -33 -22 -64 -24
-7 -1 -10 -6 -7 -12 4 -6 0 -9 -11 -7 -11 2 -18 -2 -16 -10 1 -8 -6 -11 -23
-8 -14 3 -23 1 -20 -5 4 -5 -3 -9 -14 -9 -12 0 -21 -4 -21 -9 0 -5 -11 -12
-25 -15 -14 -4 -25 -11 -25 -16 0 -5 -6 -7 -14 -4 -7 3 -20 -2 -29 -10 -8 -8
-17 -12 -21 -9 -3 3 -8 -2 -12 -11 -5 -12 -10 -14 -19 -6 -10 8 -16 7 -24 -7
-6 -10 -11 -13 -11 -8 0 6 -5 3 -10 -5 -5 -8 -13 -15 -17 -16 -20 -1 -62 -28
-57 -35 3 -5 -2 -6 -10 -3 -11 4 -16 0 -16 -12 0 -14 -2 -16 -9 -6 -6 11 -11
10 -24 -3 -9 -9 -21 -14 -26 -11 -5 3 -12 -1 -15 -10 -3 -8 -10 -13 -15 -10
-5 4 -11 1 -13 -4 -2 -6 -13 -12 -25 -13 -12 0 -20 -3 -18 -6 8 -8 -47 -31
-58 -24 -6 3 -7 1 -3 -5 4 -7 2 -12 -3 -12 -20 0 -26 -3 -39 -19 -8 -9 -11
-10 -7 -3 3 6 1 12 -4 12 -6 0 -11 -4 -11 -9 0 -5 -9 -11 -20 -14 -12 -3 -18
-11 -15 -19 7 -19 85 -24 85 -6 0 10 2 10 9 -1 6 -9 11 -10 15 -2 4 6 12 9 17
6 5 -4 9 -1 9 4 0 6 5 11 11 11 5 0 7 -6 4 -13 -4 -6 0 -4 8 6 11 14 16 15 20
5 4 -10 6 -10 6 0 1 6 10 12 22 12 11 0 18 3 16 8 -3 4 9 8 26 9 17 1 34 8 38
14 5 8 8 7 12 -2 4 -10 6 -10 6 -1 1 6 8 12 17 12 9 0 12 5 8 13 -5 8 -2 8 9
-2 13 -10 17 -10 17 -1 0 7 7 10 15 6 8 -3 15 -1 15 5 0 6 4 8 9 4 5 -3 15 1
23 8 7 8 19 12 27 9 7 -2 17 2 22 9 7 12 9 12 9 0 0 -9 7 -6 20 9 13 15 20 18
20 9 1 -10 4 -9 11 4 6 9 15 15 20 11 5 -3 16 0 24 6 8 6 19 9 25 5 5 -3 10
-1 10 5 0 6 8 10 18 8 10 -2 16 2 14 10 -1 8 2 11 8 7 6 -4 18 -1 27 7 14 11
16 11 8 -2 -7 -12 -6 -13 7 -3 8 7 19 9 23 5 5 -4 5 2 1 12 -5 15 -4 17 8 7
10 -8 16 -9 21 -1 3 5 15 10 26 10 11 0 18 4 14 9 -3 6 4 8 15 6 11 -2 20 0
20 6 0 5 3 8 8 8 21 -4 32 2 26 14 -5 8 -2 8 9 -2 11 -9 17 -10 17 -2 0 6 7
11 15 11 8 0 15 6 15 13 0 8 4 7 10 -3 6 -9 10 -10 10 -3 0 7 9 10 21 8 16 -3
18 -1 10 9 -8 10 -6 12 12 11 12 -1 32 5 44 12 12 8 26 12 32 9 5 -3 12 1 15
10 4 9 9 14 13 11 3 -3 20 1 37 10 17 10 34 16 39 15 4 -1 7 2 7 8 0 6 6 9 13
8 6 -2 11 3 9 10 -2 10 2 10 20 1 21 -11 22 -11 10 4 -12 14 -11 16 7 12 12
-2 21 0 21 6 0 5 9 9 21 9 11 0 17 5 14 10 -3 6 3 10 14 10 11 0 26 7 35 15 8
8 19 15 25 15 6 0 11 5 11 11 0 6 7 9 15 5 8 -3 15 -1 15 4 0 5 9 12 20 15 11
4 18 11 15 16 -4 5 -2 9 4 9 5 0 12 -6 14 -12 3 -8 6 -6 6 5 1 9 8 17 16 17 8
0 15 4 15 8 0 11 61 33 72 26 5 -3 7 0 6 8 -2 7 5 12 14 12 10 -1 16 3 15 10
-1 6 6 10 16 8 9 -2 20 4 23 12 3 9 10 13 15 10 5 -3 9 0 9 7 0 7 3 9 7 6 3
-4 12 1 20 11 9 10 11 11 7 2 -7 -12 -5 -13 8 -3 8 7 18 11 21 8 4 -3 5 -2 2
2 -3 3 7 14 23 23 19 12 29 14 34 6 5 -7 8 -5 8 6 0 9 5 20 12 24 7 5 9 2 4
-7 -4 -8 0 -5 9 6 9 11 17 19 18 18 7 -8 46 11 40 20 -4 6 4 8 20 5 16 -3 25
-1 24 6 -1 6 4 10 11 8 6 -1 12 6 12 15 0 15 2 16 10 3 8 -13 10 -13 10 2 0
12 5 15 17 11 11 -4 14 -3 9 5 -6 11 5 17 27 13 4 0 7 4 7 11 0 6 3 8 6 5 10
-9 46 12 39 23 -3 6 1 7 9 4 10 -4 16 -1 16 7 0 12 2 12 9 1 7 -11 9 -10 15 3
3 9 10 13 16 10 5 -3 10 -1 10 6 0 6 8 9 20 6 11 -3 18 0 17 7 -1 6 4 10 11 8
6 -1 12 3 12 9 0 5 4 8 9 5 5 -3 33 7 64 24 30 16 58 26 62 22 5 -4 6 0 2 9
-4 12 0 15 19 13 13 -1 24 2 24 7 0 6 5 7 10 4 6 -3 10 -1 10 5 0 6 5 8 10 5
6 -3 10 2 11 12 0 11 3 13 6 5 3 -9 10 -7 23 9 11 12 24 18 31 13 7 -4 9 -3 6
3 -4 6 6 16 23 22 17 5 30 15 30 21 0 6 5 8 10 5 6 -3 10 1 10 9 0 10 6 13 17
9 13 -5 15 -2 10 12 -7 16 -5 16 10 4 9 -8 14 -9 10 -3 -3 6 5 17 18 24 13 7
22 17 19 21 -3 5 1 6 8 4 8 -3 23 4 35 15 12 11 27 20 33 20 6 0 13 7 16 15 4
8 10 12 15 9 5 -3 9 0 9 6 0 6 4 9 9 6 5 -3 11 1 15 9 3 8 13 15 21 15 9 0 13
5 10 10 -3 6 1 10 10 10 9 0 30 15 47 32 17 18 27 26 23 18 -4 -8 7 1 25 20
18 19 29 28 25 20 -3 -8 3 -4 15 10 12 14 27 25 34 25 6 1 10 6 9 12 -2 7 6
15 17 18 11 4 18 11 15 16 -4 5 0 9 7 9 8 0 20 9 28 20 8 11 21 20 30 20 12 0
12 2 2 9 -10 6 -8 10 8 14 14 4 19 10 14 18 -5 9 -2 10 9 6 10 -4 17 -1 17 6
0 7 9 19 19 27 11 7 18 17 16 21 -3 4 2 10 11 13 9 3 14 13 11 21 -4 9 -1 12
8 8 8 -3 18 2 21 11 3 9 10 14 14 11 5 -3 12 4 15 16 10 30 37 59 48 52 6 -4
8 0 4 9 -4 11 1 18 15 21 11 3 17 10 14 16 -4 5 3 12 14 16 11 3 20 11 20 16
0 5 18 28 40 50 22 23 38 45 35 49 -3 5 3 7 14 5 14 -2 18 1 14 11 -3 9 1 14
12 14 9 0 14 4 10 9 -3 5 4 12 14 16 12 4 18 12 14 21 -3 9 2 14 17 14 12 0
20 5 18 12 -3 7 10 26 28 44 18 17 30 34 27 38 -4 3 -1 6 5 6 7 0 12 7 12 16
0 8 5 12 10 9 6 -3 10 -1 10 5 0 6 4 8 10 5 6 -3 7 1 4 9 -3 9 -1 16 6 16 6 0
9 4 6 8 -3 5 4 14 14 22 10 8 17 17 14 22 -3 4 0 8 5 8 6 0 11 9 11 21 0 15 5
19 16 15 8 -3 13 -2 10 3 -3 5 1 11 9 15 8 3 15 1 15 -5 0 -6 5 -7 10 -4 6 4
8 11 5 16 -4 5 -1 9 4 9 6 0 11 -6 11 -12 0 -9 3 -8 10 2 5 8 12 11 16 7 4 -4
13 -2 20 4 8 6 21 9 29 5 8 -3 15 -1 15 3 0 5 11 8 25 7 15 -2 22 1 18 7 -4 6
0 8 8 5 8 -3 25 -1 39 5 27 10 47 15 96 20 16 2 36 7 42 11 7 4 17 4 24 0 7
-4 8 -3 4 4 -7 12 3 15 42 12 12 -1 22 4 22 12 0 11 2 11 9 0 6 -11 11 -10 25
3 10 10 16 12 16 4 0 -8 3 -9 13 0 8 6 17 8 20 4 4 -3 7 -2 7 4 0 6 9 9 22 5
13 -3 19 -1 15 5 -4 6 4 9 18 7 14 -1 32 4 40 13 10 9 15 10 15 2 0 -9 4 -8
15 1 12 10 15 10 15 -1 0 -9 3 -10 8 -3 12 17 39 23 51 11 10 -9 12 -9 9 3 -3
14 2 16 43 19 13 1 18 5 13 14 -6 9 -5 9 8 -1 12 -10 18 -10 27 1 7 9 22 12
38 9 15 -3 24 -1 20 5 -3 5 4 9 16 8 12 -1 28 2 35 8 6 5 12 6 12 2 0 -4 8 -1
17 6 15 12 16 12 8 -1 -7 -12 -6 -13 7 -3 8 7 18 10 21 6 4 -3 7 -1 7 5 0 6 9
9 20 7 11 -2 20 0 20 6 0 5 9 9 20 9 11 0 20 4 20 9 0 7 27 15 88 23 6 1 12 4
12 8 0 3 9 6 21 7 12 1 27 10 35 20 11 14 13 14 9 2 -4 -9 0 -16 9 -16 8 0 12
6 9 14 -3 9 3 13 22 13 15 0 24 4 20 10 -4 6 1 7 10 3 10 -3 20 -1 24 6 4 7
18 13 29 14 12 1 22 5 22 9 0 4 7 5 15 2 8 -4 15 -1 15 5 0 6 9 11 21 11 11 0
18 4 14 9 -3 6 4 8 15 6 11 -2 20 1 20 6 0 6 5 7 10 4 6 -3 10 -1 10 4 0 6 12
11 26 11 14 0 23 4 19 10 -6 10 7 14 33 11 7 -1 15 5 18 13 3 9 10 13 15 10 5
-3 9 1 9 8 0 9 3 9 10 -2 6 -10 10 -11 10 -2 0 6 7 12 16 12 9 0 12 5 8 13 -4
6 -3 9 1 4 5 -4 19 0 32 8 13 9 23 12 23 8 0 -5 5 -1 10 7 5 8 13 15 17 15 16
1 73 30 73 38 0 5 5 5 10 2 6 -3 10 -1 10 5 0 6 5 8 10 5 6 -3 10 -1 10 5 0 6
5 8 10 5 6 -3 10 -1 10 4 0 6 3 10 8 10 20 -3 33 2 27 11 -4 6 7 13 24 16 16
4 39 15 50 26 12 10 21 14 21 9 0 -6 7 -8 15 -5 8 4 12 11 8 17 -3 6 -1 7 6 3
6 -4 19 -2 28 6 14 11 16 11 8 -2 -5 -9 1 -7 15 5 13 11 20 14 16 8 -4 -7 -2
-13 3 -13 6 0 11 5 11 11 0 6 7 9 15 5 8 -3 18 0 22 7 7 11 16 14 67 21 11 1
22 8 24 15 3 9 8 9 20 -1 12 -10 14 -10 8 0 -5 8 -1 12 13 12 10 0 22 6 24 13
4 10 6 10 6 0 1 -8 9 -5 22 8 17 17 23 19 30 8 6 -11 9 -11 14 1 3 8 17 16 31
17 15 0 30 6 34 13 4 6 11 11 16 11 17 -1 49 11 66 26 12 11 18 11 23 3 6 -9
9 -9 15 1 5 7 19 14 31 16 13 2 26 8 30 15 4 6 12 7 18 4 6 -4 11 -2 11 3 0 6
9 11 20 11 11 0 20 5 20 11 0 5 4 8 9 4 5 -3 12 -1 16 5 4 6 11 8 16 5 5 -4 9
-1 9 4 0 6 9 11 20 11 11 0 20 5 20 11 0 5 4 8 9 4 5 -3 12 -1 16 5 4 6 11 7
17 4 7 -4 8 -2 4 4 -4 7 -4 12 1 13 26 2 47 9 52 16 3 4 17 14 30 21 19 11 22
11 16 0 -3 -7 1 -4 9 6 9 11 16 16 16 12 0 -4 13 2 29 13 15 11 31 18 35 14 3
-3 6 2 6 13 0 14 2 16 9 5 7 -10 12 -8 25 10 10 15 16 18 16 9 1 -11 3 -11 11
3 6 9 14 15 20 12 5 -4 9 -2 9 3 0 6 11 13 25 16 14 4 23 11 20 16 -6 9 16 14
31 8 3 -2 10 5 15 15 6 9 17 17 24 17 8 0 15 5 15 11 0 8 4 9 13 0 8 -6 17 -8
21 -4 10 11 56 11 56 1 0 -5 9 -4 19 2 13 7 22 7 26 0 4 -7 13 -7 24 0 12 6
22 5 29 -2 9 -9 12 -9 12 1 0 10 3 11 13 2 10 -7 17 -7 24 0 8 8 13 8 17 0 4
-6 12 -11 17 -11 6 0 7 6 3 13 -6 9 -4 9 8 -1 12 -10 18 -10 23 -1 6 8 10 7
16 -2 6 -9 9 -10 9 -2 0 12 17 12 38 0 6 -5 12 -4 12 0 0 12 38 14 45 2 4 -5
16 -3 28 6 19 12 82 26 127 27 8 1 20 5 27 10 7 5 17 7 23 3 5 -3 10 0 10 7 0
9 3 9 10 -2 7 -12 10 -12 10 -1 0 8 6 11 15 7 9 -3 18 1 22 10 5 13 7 13 14 2
7 -11 9 -11 9 1 0 8 6 11 16 7 8 -3 12 -2 9 4 -3 6 -1 10 5 10 16 0 61 36 54
43 -3 3 4 8 16 12 13 4 19 12 16 21 -3 8 -2 13 3 10 4 -3 16 3 26 14 10 11 22
17 26 14 5 -3 6 2 3 11 -4 10 1 22 13 30 13 9 19 23 18 40 -2 14 0 25 4 25 4
0 7 9 8 20 1 11 -4 20 -10 20 -8 0 -7 3 2 9 9 6 10 11 2 15 -6 4 -9 11 -6 16
3 5 1 19 -6 31 -8 15 -8 19 0 15 6 -4 11 -2 11 3 0 6 -4 11 -9 11 -6 0 -8 9
-6 20 2 11 -1 20 -7 20 -6 0 -5 7 3 17 8 9 9 14 3 10 -7 -4 -14 0 -17 7 -3 8
-1 17 6 20 8 3 7 5 -2 5 -11 1 -10 5 5 17 10 8 13 13 7 9 -20 -10 -15 23 5 34
9 6 13 11 9 11 -10 0 58 70 68 70 3 0 3 -6 0 -12 -4 -7 0 -4 9 6 8 10 13 23
10 28 -3 5 -2 8 3 7 15 -4 43 13 37 22 -3 5 0 9 5 9 6 0 10 4 8 9 -1 5 7 17
18 26 11 9 13 13 5 9 -13 -7 -13 -5 -2 9 8 9 10 22 6 28 -4 7 -3 9 4 5 13 -8
35 28 24 39 -4 5 1 5 11 2 10 -4 16 -3 12 2 -3 5 -1 12 5 16 6 4 7 12 4 18 -4
7 -4 9 1 5 4 -4 18 4 31 19 17 20 20 31 13 45 -7 14 -6 18 3 16 8 -2 12 4 10
15 -2 9 3 17 10 17 9 0 9 3 -2 10 -8 5 -10 10 -4 10 7 0 9 11 6 26 -4 21 -2
25 9 19 12 -7 12 -6 1 7 -10 12 -9 18 3 28 11 9 12 17 4 31 -7 14 -6 19 3 19
9 0 9 3 -2 10 -14 9 -7 15 14 11 5 -1 4 5 -3 13 -7 8 -10 20 -7 25 4 5 1 13
-5 17 -8 5 -8 9 1 14 9 6 8 14 -5 34 -14 20 -14 26 -4 26 9 1 7 6 -5 15 -14
11 -16 15 -5 15 12 0 12 2 0 9 -11 7 -11 9 0 14 11 4 11 6 1 6 -7 1 -10 6 -6
13 5 8 1 9 -12 4 -15 -5 -16 -4 -7 5 14 14 6 39 -14 39 -8 0 -11 5 -8 10 3 6
-1 10 -9 10 -9 0 -16 4 -16 9 0 5 -12 12 -27 16 -16 4 -22 10 -15 12 9 4 6 10
-10 21 -13 9 -26 16 -30 15 -4 -2 -5 4 -2 12 5 11 2 13 -10 9 -12 -5 -15 -2
-10 10 4 10 1 16 -8 16 -7 0 -20 9 -28 19 -7 11 -17 18 -22 15 -4 -3 -8 0 -8
6 0 6 -4 8 -10 5 -5 -3 -10 -1 -10 5 0 6 -5 8 -10 5 -6 -3 -13 1 -16 10 -5 13
-9 13 -22 3 -12 -10 -14 -10 -8 0 4 7 2 12 -4 12 -16 0 -40 26 -32 34 3 4 -2
4 -13 0 -15 -6 -17 -4 -12 9 6 16 -3 22 -26 18 -5 -1 -6 2 -3 7 3 5 -4 15 -15
22 -10 8 -19 23 -19 33 0 10 -4 15 -10 12 -5 -3 -10 -1 -10 5 0 6 -5 8 -12 4
-7 -5 -8 -3 -4 5 9 14 -67 94 -79 83 -5 -4 -5 -2 -2 5 9 15 -21 45 -35 37 -6
-4 -8 -2 -5 3 8 13 -47 75 -58 65 -5 -4 -5 -1 -1 5 4 8 -2 17 -18 25 -14 6
-26 15 -26 20 0 4 -3 7 -7 7 -20 -3 -34 2 -28 11 3 6 -2 10 -12 10 -10 0 -31
11 -47 25 -32 28 -41 31 -30 13 5 -9 3 -9 -9 1 -9 7 -14 18 -10 24 3 6 1 7 -5
3 -7 -4 -12 -2 -12 4 0 6 -4 9 -9 5 -6 -3 -22 7 -37 22 -14 16 -24 21 -20 13
4 -8 -1 -5 -10 8 -9 12 -22 22 -28 22 -6 0 -18 9 -26 20 -11 15 -17 17 -29 7
-12 -9 -13 -9 -7 1 4 7 2 12 -4 12 -6 0 -8 5 -5 10 5 9 -9 15 -18 8 -2 -2 -15
9 -31 25 -15 15 -31 25 -36 22 -5 -3 -12 4 -15 16 -4 11 -9 18 -12 15 -3 -2
-14 4 -26 14 -11 11 -25 17 -30 13 -6 -3 -8 -2 -5 3 9 14 -16 34 -42 34 -5 0
-10 7 -10 16 0 8 -4 12 -10 9 -5 -3 -10 -1 -10 4 0 6 -3 10 -7 10 -20 -3 -34
2 -28 11 3 6 -1 10 -9 10 -9 0 -16 5 -16 10 0 6 -7 10 -16 10 -8 0 -13 4 -10
9 3 5 -8 11 -25 15 -24 5 -30 10 -25 23 4 10 4 14 0 10 -4 -4 -14 -1 -22 6
-13 10 -14 9 -8 -3 4 -8 -1 -4 -12 9 -11 13 -24 21 -31 17 -6 -4 -11 -1 -11 9
0 9 -4 13 -10 10 -5 -3 -10 -1 -10 4 0 6 -7 11 -15 11 -8 0 -15 5 -15 10 0 6
-7 10 -15 10 -8 0 -15 5 -15 11 0 5 -4 8 -9 5 -5 -3 -11 1 -15 9 -3 8 -12 15
-20 15 -7 0 -17 7 -20 16 -3 8 -10 13 -15 10 -5 -3 -12 1 -15 10 -4 11 -13 14
-27 11 -12 -3 -18 -3 -15 0 8 8 -35 44 -45 37 -5 -3 -9 -1 -9 5 0 14 -55 42
-65 33 -5 -4 -5 -1 -1 6 4 7 1 12 -8 12 -8 0 -22 10 -30 22 -10 13 -16 17 -16
9 0 -9 -7 -6 -19 8 -12 14 -25 20 -32 15 -7 -4 -9 -3 -6 2 3 6 -3 16 -15 23
-11 7 -17 8 -14 2 4 -7 1 -8 -8 -5 -9 3 -13 10 -10 15 3 5 -2 9 -10 9 -9 0
-16 5 -16 10 0 6 -7 10 -16 10 -8 0 -13 4 -10 8 2 4 -5 9 -17 9 -12 1 -23 7
-25 12 -2 5 -10 7 -18 4 -9 -3 -14 0 -12 8 2 8 -4 13 -14 13 -10 -1 -16 3 -15
10 1 6 -5 10 -14 8 -9 -1 -19 4 -23 13 -3 8 -12 15 -21 15 -8 0 -15 5 -15 11
0 5 -4 8 -9 4 -6 -3 -14 2 -19 11 -5 9 -12 15 -15 15 -20 -3 -28 0 -22 9 3 5
0 7 -8 4 -8 -3 -18 0 -22 5 -3 6 -11 9 -16 5 -5 -3 -8 0 -7 8 2 7 -5 12 -14
12 -10 -1 -18 2 -18 7 0 13 -76 49 -85 41 -5 -4 -6 0 -3 8 4 11 -1 16 -15 17
-11 1 -23 7 -27 13 -4 7 -10 11 -14 11 -20 -3 -26 1 -26 14 0 8 -6 12 -13 9
-8 -3 -20 2 -27 10 -7 9 -17 13 -23 9 -6 -4 -8 0 -4 9 4 12 0 15 -18 13 -14
-1 -26 4 -30 13 -3 8 -8 12 -11 9 -4 -3 -13 1 -21 9 -8 8 -19 12 -24 9 -5 -4
-9 -1 -9 6 0 7 -3 9 -7 6 -3 -4 -17 0 -29 8 -13 8 -39 16 -58 17 -19 2 -32 6
-29 11 2 4 -5 7 -17 7 -12 0 -19 3 -17 8 3 4 -9 8 -25 9 -17 1 -36 8 -44 14
-8 6 -14 8 -14 4 0 -4 -7 -2 -15 5 -8 7 -15 9 -15 5 0 -5 -9 0 -20 10 -15 14
-20 15 -20 4 0 -11 -2 -11 -10 1 -10 16 -13 17 -56 19 -14 0 -23 5 -20 9 2 4
-7 9 -22 10 -15 1 -29 7 -30 13 -3 6 -10 5 -20 -3 -13 -11 -14 -11 -8 0 5 9 3
13 -5 11 -29 -3 -50 1 -44 11 4 7 -2 7 -18 1 -14 -6 -28 -7 -31 -3 -8 8 -31
13 -81 17 -22 2 -52 8 -66 14 -15 5 -30 7 -33 4 -3 -4 -6 0 -6 8 0 11 -2 11
-10 -1 -5 -8 -10 -10 -10 -3 0 6 -13 10 -30 9 -16 -1 -30 0 -30 3 0 3 -17 6
-37 5 -21 0 -46 3 -55 8 -10 5 -18 3 -21 -5 -4 -9 -6 -8 -6 2 -1 11 -4 11 -17
0 -13 -10 -17 -10 -25 2 -8 12 -10 12 -20 -1 -8 -11 -12 -12 -16 -3 -3 9 -10
10 -23 3 -13 -7 -20 -6 -22 2 -3 8 -10 8 -27 -2 -14 -7 -21 -8 -17 -1 4 7 -7
10 -31 8 -21 -1 -44 3 -52 7 -11 7 -13 5 -8 -10 7 -18 7 -18 -8 0 -8 11 -15
15 -15 10 0 -5 -9 -10 -20 -10 -14 0 -19 5 -15 15 4 10 2 11 -8 3 -15 -13 -77
-13 -77 0 0 4 -12 8 -26 8 -14 0 -23 4 -19 10 4 6 -5 10 -19 10 -14 0 -26 5
-26 10 0 6 -5 10 -10 10 -6 0 -29 9 -51 19 -21 11 -36 15 -33 9 3 -5 -3 -4
-15 4 -12 7 -21 15 -21 19 0 5 -8 7 -49 11 -11 1 -18 5 -15 9 2 4 -3 10 -12
13 -10 4 -13 2 -9 -7 4 -6 0 -4 -8 6 -10 12 -17 14 -22 7 -3 -5 -12 -7 -18 -3
-16 10 -38 10 -60 0 -11 -5 -24 -4 -33 4 -8 6 -17 9 -21 6 -3 -4 -12 -2 -20 4
-9 8 -13 8 -13 0 0 -7 -8 -8 -26 -1 -14 6 -30 8 -35 4 -5 -3 -9 1 -9 8 0 11
-2 10 -9 0 -7 -11 -9 -10 -14 3 -5 13 -11 14 -27 5 -15 -8 -20 -8 -20 1 0 7
-3 9 -7 6 -3 -4 -12 -2 -20 4 -10 9 -13 8 -13 -1 0 -9 -7 -7 -20 5 -13 12 -20
14 -20 5 0 -10 -3 -10 -15 0 -9 7 -18 10 -22 7 -3 -4 -12 -2 -20 4 -10 9 -13
8 -13 -2 0 -11 -2 -11 -8 -2 -4 7 -25 14 -45 15 -20 2 -37 7 -37 12 0 4 -8 5
-17 2 -9 -4 -20 -1 -25 6 -6 10 -8 10 -8 1 0 -7 -7 -10 -15 -7 -8 4 -12 11 -8
17 4 6 -7 2 -23 -10 -27 -19 -41 -22 -86 -24 -10 0 -20 -5 -24 -10 -4 -6 -11
-6 -20 2 -11 9 -14 8 -14 -7 0 -11 -4 -15 -8 -9 -8 12 -32 13 -49 2 -6 -4 -14
-1 -16 5 -3 7 -6 8 -6 2 -1 -12 -58 -6 -67 8 -3 5 -12 4 -20 -3 -8 -6 -14 -7
-14 -2 0 5 -6 10 -12 11 -15 1 -53 10 -53 12 0 2 -38 11 -52 12 -7 1 -13 6
-13 12 0 6 -4 5 -9 -2 -7 -11 -9 -11 -14 2 -4 9 -14 13 -26 11 -11 -2 -23 1
-27 6 -4 6 -11 6 -20 -2 -10 -8 -14 -8 -14 0 0 6 -13 9 -30 7 -16 -2 -39 4
-51 12 -12 9 -19 10 -15 4 8 -13 -20 -12 -41 1 -8 5 -13 3 -13 -5 0 -8 -3 -9
-8 -3 -9 12 -27 17 -69 17 -18 0 -33 5 -33 10 0 6 -9 8 -20 5 -13 -3 -18 -1
-13 6 4 6 0 8 -10 4 -10 -3 -17 -2 -17 3 0 6 -13 10 -29 10 -17 0 -32 4 -35 8
-6 11 -36 9 -55 -3 -10 -5 -12 -4 -7 3 7 12 -13 16 -67 14 -15 0 -25 3 -23 7
3 4 -1 8 -9 8 -8 0 -15 -5 -15 -11 0 -6 -4 -5 -9 2 -4 8 -12 14 -16 14 -4 0
-12 -6 -16 -14 -6 -9 -9 -10 -9 -1 0 7 -14 12 -32 12 -18 0 -48 2 -65 4 -18 2
-35 -2 -37 -7 -2 -6 -5 -5 -5 3 -1 11 -4 11 -16 1 -12 -10 -15 -10 -15 0 0 9
-3 10 -13 1 -8 -6 -17 -8 -21 -4 -12 12 -43 10 -43 -4z m5707 -3947 c0 -3 -4
-8 -10 -11 -5 -3 -10 -1 -10 4 0 6 5 11 10 11 6 0 10 -2 10 -4z"/>
</g>
</svg>
